<?xml version="1.0" standalone="no"?>
<!DOCTYPE svg PUBLIC "-//W3C//DTD SVG 20010904//EN"
 "http://www.w3.org/TR/2001/REC-SVG-20010904/DTD/svg10.dtd">
<svg version="1.0" xmlns="http://www.w3.org/2000/svg"
 width="410.000000pt" height="62.000000pt" viewBox="0 0 410.000000 62.000000"
 preserveAspectRatio="xMidYMid meet">

<g transform="translate(0.000000,62.000000) scale(0.100000,-0.100000)"
fill="#000000" stroke="none">
<path d="M0 545 c0 -43 4 -75 10 -75 6 0 10 28 10 65 l0 65 65 0 c37 0 65 4
65 10 0 6 -32 10 -75 10 l-75 0 0 -75z"/>
<path d="M470 610 c0 -6 30 -10 70 -10 l70 0 0 -70 c0 -40 4 -70 10 -70 6 0
10 33 10 80 l0 80 -80 0 c-47 0 -80 -4 -80 -10z"/>
<path d="M297 559 c-59 -14 -97 -37 -97 -60 0 -31 22 -32 77 -4 63 31 141 34
166 7 10 -11 17 -35 17 -57 0 -33 -7 -45 -48 -85 -31 -30 -63 -50 -90 -57 -23
-6 -42 -9 -42 -7 0 2 14 38 31 80 25 66 28 79 16 91 -18 18 -41 8 -57 -25 -11
-24 -90 -232 -90 -237 0 -1 9 -12 20 -25 l20 -23 26 57 c14 31 31 55 37 53 7
-1 30 -37 52 -79 59 -113 89 -137 143 -117 28 10 29 29 2 29 -15 0 -36 24 -73
82 l-54 82 46 22 c121 56 165 169 93 236 -48 45 -111 57 -195 37z"/>
<path d="M3073 510 c-54 -22 -51 -92 4 -103 71 -13 132 55 83 95 -24 19 -52
22 -87 8z"/>
<path d="M1970 280 l0 -210 65 0 65 0 0 210 0 210 -65 0 -65 0 0 -210z"/>
<path d="M2748 463 c-25 -4 -28 -8 -28 -44 0 -28 -4 -39 -15 -39 -11 0 -15
-11 -15 -40 0 -29 4 -40 15 -40 12 0 15 -16 15 -85 0 -79 2 -87 29 -117 26
-29 34 -32 82 -32 70 0 99 16 99 54 0 17 -5 30 -10 30 -6 0 -22 11 -35 25 -20
19 -25 34 -25 75 l0 50 35 0 c34 0 35 1 35 40 0 39 -1 40 -35 40 -35 0 -35 0
-35 45 l0 45 -42 -1 c-24 -1 -55 -4 -70 -6z"/>
<path d="M840 381 c-51 -16 -89 -41 -108 -73 -85 -139 24 -274 193 -240 84 17
106 34 98 75 -8 41 -7 41 -35 23 -12 -8 -41 -18 -64 -21 -32 -6 -44 -3 -59 11
-18 19 -17 19 31 24 56 7 109 32 124 59 18 35 12 86 -13 109 -39 37 -109 50
-167 33z m75 -81 c12 -19 -7 -58 -31 -63 -20 -3 -24 0 -24 19 0 12 3 29 6 38
7 17 39 22 49 6z"/>
<path d="M1651 375 c-78 -24 -121 -82 -121 -162 0 -63 28 -109 83 -133 51 -24
97 -25 163 -5 73 22 78 27 70 69 -7 35 -7 36 -34 22 -61 -31 -132 -31 -132 0
0 9 11 14 34 14 141 0 197 145 76 194 -48 19 -80 19 -139 1z m89 -95 c0 -24
-6 -33 -26 -40 -34 -13 -34 -13 -34 11 0 32 19 59 40 59 16 0 20 -7 20 -30z"/>
<path d="M2310 368 c-171 -88 -102 -347 78 -298 24 6 53 21 64 32 l21 21 19
-26 c16 -21 28 -27 59 -27 l39 0 0 155 0 155 -38 0 c-26 0 -45 -7 -57 -20 -18
-19 -18 -19 -46 1 -45 31 -87 34 -139 7z m145 -127 c0 -40 -4 -47 -33 -64 -18
-10 -39 -16 -47 -13 -42 16 12 131 59 124 18 -3 21 -10 21 -47z"/>
<path d="M3391 377 c-18 -6 -49 -26 -67 -45 -60 -62 -58 -150 5 -213 49 -49
107 -67 169 -51 87 23 134 78 134 156 0 119 -116 193 -241 153z m124 -98 c18
-28 -40 -119 -76 -119 -40 0 -36 64 6 106 25 25 59 32 70 13z"/>
<path d="M3920 375 c-19 -9 -42 -23 -51 -31 -16 -14 -19 -13 -34 10 -14 21
-25 26 -56 26 l-39 0 0 -155 0 -155 70 0 70 0 0 98 c0 115 11 142 48 117 20
-15 22 -24 22 -116 l0 -99 75 0 75 0 0 110 c0 118 -13 170 -48 189 -36 19 -95
22 -132 6z"/>
<path d="M1120 376 c0 -7 151 -290 161 -303 6 -7 15 -13 20 -13 9 0 159 292
159 310 0 5 -24 10 -53 10 l-53 0 -23 -47 -23 -48 -24 48 -24 47 -70 0 c-39 0
-70 -2 -70 -4z"/>
<path d="M3037 374 c-4 -4 -7 -74 -7 -156 l0 -148 75 0 76 0 -3 153 -3 152
-65 3 c-36 2 -69 0 -73 -4z"/>
<path d="M610 75 l0 -64 -67 -4 -68 -3 78 -2 77 -2 0 70 c0 40 -4 70 -10 70
-6 0 -10 -28 -10 -65z"/>
</g>
</svg>
